<svg xmlns="http://www.w3.org/2000/svg" viewBox="0 0 512 512">
  <rect width="512" height="512" rx="112" fill="#f58220"/>
  <circle cx="168" cy="330" r="38" fill="#0f172a"/>
  <circle cx="344" cy="330" r="38" fill="#0f172a"/>
  <path d="M116 296h280c20 0 36-16 36-36v-28c0-18-12-34-30-39l-56-16-48-64c-9-12-23-19-38-19h-94c-17 0-32 9-40 24l-34 65-30 10c-17 6-28 21-28 39v28c0 20 16 36 36 36h50z" fill="#ffffff"/>
  <path d="M166 142h78c8 0 16 4 21 11l31 42H138l21-40c2-8 9-13 7-13z" fill="#fed7aa"/>
  <text x="256" y="408" text-anchor="middle" font-size="58" font-family="Arial, sans-serif" font-weight="900" fill="#ffffff">BILHK</text>
</svg>
