<svg xmlns="http://www.w3.org/2000/svg" viewBox="0 0 512 512" width="512" height="512" role="img" aria-label="VORQ Fordon">
  <rect width="512" height="512" rx="58" fill="#ffffff"/>
  <rect x="28" y="28" width="456" height="456" rx="58" fill="#f8fafc" stroke="#e2e8f0" stroke-width="3"/>
  <path d="M28 28H238L28 126Z" fill="#f58220"/>
  <path d="M484 484H274L484 386Z" fill="#f58220"/>
  <path d="M73 126C108 98 132 86 133 86C178 81 213 77 236 78C283 81 315 95 334 112" fill="none" stroke="#081f3b" stroke-width="11" stroke-linecap="round" stroke-linejoin="round"/>
  <path d="M82 150L214 110L356 112L214 139L112 183Z" fill="#f58220"/>
  <path d="M126 184L214 139L387 126" fill="none" stroke="#081f3b" stroke-width="8" stroke-linecap="round"/>
  <text x="56" y="300" font-family="Arial, Helvetica, sans-serif" font-size="112" font-weight="900" fill="#081f3b">VOR</text>
  <text x="340" y="300" font-family="Arial, Helvetica, sans-serif" font-size="112" font-weight="900" fill="#f58220">Q</text>
  <text x="256" y="382" font-family="Arial, Helvetica, sans-serif" font-size="58" font-weight="900" fill="#081f3b" text-anchor="middle">Fordon</text>
  <text x="256" y="424" font-family="Arial, Helvetica, sans-serif" font-size="24" font-weight="700" fill="#162437" text-anchor="middle">Ägs av VORQ Group</text>
  <rect x="155" y="440" width="202" height="8" rx="4" fill="#f58220"/>
</svg>