<?xml version="1.0" encoding="UTF-8"?>
<svg xmlns="http://www.w3.org/2000/svg" viewBox="0 0 512 512" width="512" height="512" role="img" aria-label="BIL HK app icon">
  <rect width="512" height="512" rx="112" fill="#ff8a1f"/>
  <circle cx="256" cy="256" r="178" fill="#ffffff" opacity="0.18"/>
  <path d="M126 286h28l24-58c8-19 26-31 47-31h62c21 0 39 12 47 31l24 58h28c16 0 29 13 29 29v54c0 10-8 18-18 18h-26c-10 0-18-8-18-18v-8H159v8c0 10-8 18-18 18h-26c-10 0-18-8-18-18v-54c0-16 13-29 29-29z" fill="#0f172a"/>
  <path d="M207 225h98c12 0 22 7 27 18l15 37H165l15-37c5-11 15-18 27-18z" fill="#ffffff" opacity="0.92"/>
  <circle cx="162" cy="321" r="23" fill="#ffffff"/>
  <circle cx="350" cy="321" r="23" fill="#ffffff"/>
  <text x="256" y="462" text-anchor="middle" font-family="Arial, Helvetica, sans-serif" font-size="62" font-weight="800" fill="#ffffff">BIL HK</text>
</svg>
